<!-- Example SVG --><svg version="1.2" xmlns="http://www.w3.org/2000/svg" viewBox="0 0 640 360" width="640" height="360"><title>Example SVG</title><path paint-order="stroke fill markers" stroke="#362345" stroke-width="4" stroke-linejoin="round" fill="#a53bce" d="M468.5 123.1L463.74 123.08L463.74 123.4Q463.74 124.35 464.29 125.13Q464.84 125.9 465.5 125.9Q466.18 125.9 467.46 125.41Q468.74 124.91 470.39 123.99L470.84 123.71Q471.31 123.45 471.48 123.32Q472.25 122.84 472.44 122.84Q472.68 122.84 472.68 123.27Q472.68 123.74 472.51 124.34Q472.34 124.94 472.08 125.5Q471.82 126.04 471.56 126.28Q470.82 126.94 469.02 127.72Q467.22 128.51 465.37 128.95Q464.75 129.08 464.23 129.08Q462.44 129.08 460.96 128.36Q459.49 127.63 458.67 126.37Q457.86 125.11 457.86 123.56Q457.86 122.28 458.39 120.74Q458.93 119.21 459.89 117.68Q460.85 116.15 462.07 114.9Q463.12 113.8 464.42 112.92Q465.72 112.02 466.95 111.54Q468.18 111.06 469.21 111.06Q470.83 111.06 471.97 111.98Q473.13 112.89 473.13 114.2Q473.13 114.77 472.92 115.45Q472.72 116.12 472.36 116.63Q472 117.18 471.28 117.7Q470.57 118.22 469.67 118.6Q468.59 119.03 467.82 119.03Q467.05 119.03 467.05 118.65Q467.05 118.43 467.48 117.96Q467.95 117.54 468.38 116.81Q468.8 116.04 469.11 115Q469.42 113.96 469.42 113.38Q469.42 112.89 469.14 112.89Q468.68 112.89 467.49 113.9Q466.31 114.9 465.62 115.88Q464.97 116.79 464.55 117.74Q464.14 118.67 463.99 119.59L470.95 119.59Q472.09 119.59 472.09 120.17Q472.09 120.72 470.82 121.96Q469.55 123.1 468.5 123.1ZM481.11 119.26Q481.64 117.79 481.99 116.19Q482.34 114.57 482.34 113.71Q482.34 113.48 482.21 113.48Q482 113.48 481.48 114.42Q480.96 115.34 480.61 116.3Q479.85 118.43 479.43 119.83Q479.03 121.23 478.88 122.18Q478.72 123.13 478.72 124.12Q478.72 124.96 478.9 125.35Q479.1 125.74 479.51 125.74Q480.23 125.74 481.11 125.12Q482 124.48 482.72 123.45Q483.28 122.68 483.59 122.68Q483.99 122.68 483.99 123.32Q483.99 124.72 483.12 126.04Q482.25 127.37 480.87 128.21Q479.5 129.03 478.07 129.03Q476.31 129.03 475.2 127.92Q474.1 126.81 474.1 125.03Q474.1 123.57 474.72 121.62Q475.35 119.65 476.39 117.67Q477.44 115.68 478.69 114.07Q479.94 112.45 481.17 111.59Q481.92 111.03 482.85 111.03Q483.55 111.03 484.12 111.47Q484.7 111.9 485.01 112.68Q485.32 113.47 485.32 114.42Q485.32 116.46 484.51 118.41Q483.72 120.37 482.29 121.8Q481.61 122.49 480.98 122.88Q480.36 123.27 479.89 123.27Q479.43 123.27 479.43 122.92Q479.43 122.72 479.77 122.18Q480.23 121.46 480.84 120.02Q480.89 119.87 480.96 119.72Q481.02 119.55 481.11 119.26ZM490.79 124.95Q491.39 124.55 491.7 124.14Q492.39 123.3 492.77 122.2Q493.07 121.49 493.24 120.6Q493.41 119.72 493.41 118.95Q493.41 118.23 493.11 118.23Q492.69 118.23 491.83 120.07Q491.32 121.17 491 122.28Q490.68 123.38 490.68 124.17Q490.68 124.44 490.79 124.95ZM490.82 125.37Q490.96 126.15 491.83 126.15Q492.81 126.15 494.37 125Q495.28 124.34 495.59 124.34Q495.98 124.34 496.32 124.55Q496.66 124.76 496.66 124.98Q496.66 125.21 496.28 125.59Q495.59 126.28 494.7 126.94Q493.8 127.59 492.96 128.04Q492.13 128.47 491.3 128.73Q490.46 128.97 489.81 128.97Q488.18 128.97 487.21 128.05Q486.23 127.11 486.23 125.56Q486.23 124.38 486.74 122.89Q487.26 121.4 488.13 120.09Q489.16 118.57 490.66 117.55Q492.51 116.33 494.2 116.33Q495.42 116.33 496.11 117.11Q496.82 117.88 496.82 119.23Q496.82 120.29 496.26 121.43Q495.71 122.58 494.63 123.64Q493.74 124.52 492.89 125.02Q492.04 125.51 491.4 125.51Q491.11 125.51 490.82 125.37ZM425.57 155.03L425.52 155.29Q425.52 155.51 425.46 155.93Q425.41 156.57 425.32 156.97Q425.23 157.37 425.05 157.65Q424.86 157.91 424.55 158.21Q423.6 159.08 422.64 159.08Q421.86 159.08 421.48 158.51Q421.11 157.93 421.11 156.66Q421.11 155.64 421.34 154.16Q421.57 152.66 421.9 151.47L422 151.14Q422 151.06 422.08 150.81Q422.56 149.04 422.96 148.19Q423.37 147.33 423.94 146.81Q424.45 146.41 425.09 146.41Q426.01 146.41 426.21 147.53Q426.39 147.37 426.56 147.16Q426.93 146.71 427.14 146.57Q427.35 146.41 427.63 146.41Q428.74 146.41 428.74 148.62Q428.74 149.83 428.48 150.97Q428.22 152.1 427.82 152.82Q427.43 153.53 427.04 153.53Q426.61 153.53 426.61 151.9Q426.61 151.04 426.51 150.56Q426.41 150.07 426.21 149.79Q425.82 150.52 425.7 153.13Q425.61 154.64 425.57 155.03ZM434.29 154.95Q434.89 154.55 435.2 154.14Q435.89 153.3 436.27 152.2Q436.57 151.49 436.74 150.6Q436.91 149.72 436.91 148.95Q436.91 148.23 436.61 148.23Q436.19 148.23 435.33 150.07Q434.83 151.17 434.5 152.28Q434.19 153.38 434.19 154.17Q434.19 154.44 434.29 154.95ZM434.32 155.37Q434.46 156.15 435.33 156.15Q436.31 156.15 437.87 155Q438.78 154.34 439.1 154.34Q439.49 154.34 439.83 154.55Q440.16 154.76 440.16 154.98Q440.16 155.21 439.79 155.59Q439.1 156.28 438.2 156.94Q437.3 157.59 436.47 158.04Q435.63 158.47 434.8 158.73Q433.97 158.97 433.32 158.97Q431.69 158.97 430.71 158.05Q429.73 157.11 429.73 155.56Q429.73 154.38 430.24 152.89Q430.76 151.4 431.64 150.09Q432.66 148.57 434.16 147.55Q436.01 146.33 437.7 146.33Q438.93 146.33 439.62 147.11Q440.32 147.88 440.32 149.23Q440.32 150.29 439.76 151.43Q439.21 152.58 438.13 153.64Q437.25 154.52 436.39 155.02Q435.54 155.51 434.9 155.51Q434.62 155.51 434.32 155.37ZM450.93 152.28L450.88 152.23L450.63 152.31Q449.7 152.57 449.28 152.57Q448.77 152.57 448.77 152.31Q448.77 152.22 448.98 151.83Q449.71 150.72 449.71 149.74Q449.71 149.18 449.51 148.73Q449.32 148.26 449.08 148.26Q448.88 148.26 448.45 148.7Q447.23 150.02 446.52 151.4Q445.82 152.78 445.82 153.86Q445.82 154.57 446.1 155.04Q446.4 155.51 446.84 155.51Q447.22 155.51 448.25 154.7Q449.29 153.9 450.58 152.57L450.93 152.28ZM450.1 155.21L450.1 155.26L450.05 155.21Q448.84 156.63 447.82 157.54Q446.82 158.44 445.96 158.9Q445.11 159.35 444.4 159.35Q442.94 159.35 441.99 158.38Q441.04 157.4 441.04 155.9Q441.04 154.98 441.51 153.71Q441.97 152.45 442.79 151.24Q444.16 149.26 446.23 147.88Q448.37 146.46 450.35 146.46Q452.01 146.46 453.08 147.15Q454.16 147.83 454.16 148.87Q454.16 149.64 453.63 150.5Q454.33 150.5 454.51 150.65Q454.7 150.8 454.7 151.34Q454.7 151.29 454.63 151.88Q454.55 153.17 454.55 154.29Q454.55 154.87 454.57 155.17Q454.58 155.47 454.62 155.86Q454.66 156.25 454.7 156.49Q454.8 157.1 455.03 157.7Q454.25 158.47 453.54 158.83Q452.82 159.18 452.08 159.18Q450.07 159.18 450.07 155.82Q450.07 155.43 450.1 155.21ZM462.92 149.26Q463.45 147.79 463.8 146.19Q464.15 144.57 464.15 143.71Q464.15 143.48 464.02 143.48Q463.81 143.48 463.29 144.42Q462.77 145.34 462.42 146.3Q461.66 148.43 461.24 149.83Q460.84 151.23 460.68 152.18Q460.53 153.13 460.53 154.12Q460.53 154.96 460.71 155.35Q460.91 155.74 461.32 155.74Q462.04 155.74 462.92 155.12Q463.81 154.48 464.53 153.45Q465.09 152.68 465.4 152.68Q465.8 152.68 465.8 153.32Q465.8 154.72 464.93 156.04Q464.06 157.37 462.68 158.21Q461.31 159.03 459.88 159.03Q458.12 159.03 457.01 157.92Q455.91 156.81 455.91 155.03Q455.91 153.57 456.53 151.62Q457.16 149.65 458.2 147.67Q459.25 145.68 460.5 144.07Q461.75 142.45 462.98 141.59Q463.73 141.03 464.66 141.03Q465.36 141.03 465.93 141.47Q466.51 141.9 466.82 142.68Q467.13 143.47 467.13 144.42Q467.13 146.46 466.32 148.41Q465.53 150.37 464.1 151.8Q463.42 152.49 462.79 152.88Q462.17 153.27 461.7 153.27Q461.24 153.27 461.24 152.92Q461.24 152.72 461.58 152.18Q462.04 151.46 462.65 150.02Q462.7 149.87 462.77 149.72Q462.83 149.55 462.92 149.26ZM482.55 153.96L482.31 154.29L478.76 157.93Q478.07 158.62 477.64 158.88Q477.22 159.13 476.71 159.13Q475.92 159.13 475.37 158.54Q474.84 157.95 474.84 157.09Q474.84 156.55 474.99 155.93Q475.16 155.29 475.65 154.04Q475.74 153.78 475.82 153.6Q475.91 153.4 475.96 153.27L475.91 153.22Q474.64 154.55 473.43 156.02Q472.42 157.23 471.82 157.83Q471.22 158.43 470.74 158.73Q470.26 159.03 469.88 159.03Q469.03 159.03 468.54 158.36Q468.04 157.7 468.04 156.55Q468.04 155.11 469.29 151.88Q470.41 149.01 471.02 148.04Q471.92 146.68 473.08 146.68Q473.78 146.68 474.24 147.02Q474.71 147.35 474.71 147.88Q474.71 148.86 473.97 150.86Q473.68 151.6 473.38 152.54L473.43 152.59Q473.91 152.06 474.98 150.76Q476.82 148.49 477.76 147.67Q478.97 146.55 479.97 146.55Q480.41 146.55 480.82 146.85Q481.22 147.15 481.45 147.66Q481.7 148.15 481.7 148.7Q481.7 149.26 480.89 151.57Q480.72 152.05 480.63 152.32Q480.54 152.59 480.46 152.79L480.53 152.84Q480.71 152.66 480.85 152.52Q481 152.37 481.17 152.22Q481.35 152.05 481.51 151.9Q481.86 151.57 483.28 150.12Q484.21 149.08 484.75 148.7Q485.28 148.31 485.78 148.31Q486.58 148.31 487 148.87Q487.43 149.42 487.43 150.5Q487.43 151.16 487.22 152.59Q487.04 154.21 486.96 155.13Q486.9 156.04 486.9 156.41Q486.9 156.68 486.92 157.11Q486.96 157.53 487.04 158.01Q487.12 158.49 487.25 159.08Q487.4 159.79 487.46 160.2Q487.35 160.67 486.77 160.99Q486.19 161.32 485.52 161.32Q484.45 161.32 483.51 160.35Q483.09 159.91 482.86 159.47Q482.64 159.01 482.53 158.4Q482.44 157.78 482.44 156.76Q482.44 156.1 482.6 154.01L482.55 153.96ZM493.16 154.95Q493.76 154.55 494.07 154.14Q494.76 153.3 495.14 152.2Q495.44 151.49 495.61 150.6Q495.78 149.72 495.78 148.95Q495.78 148.23 495.48 148.23Q495.06 148.23 494.2 150.07Q493.69 151.17 493.37 152.28Q493.05 153.38 493.05 154.17Q493.05 154.44 493.16 154.95ZM493.18 155.37Q493.33 156.15 494.2 156.15Q495.18 156.15 496.74 155Q497.65 154.34 497.96 154.34Q498.35 154.34 498.69 154.55Q499.03 154.76 499.03 154.98Q499.03 155.21 498.65 155.59Q497.96 156.28 497.07 156.94Q496.17 157.59 495.33 158.04Q494.5 158.47 493.67 158.73Q492.83 158.97 492.18 158.97Q490.55 158.97 489.58 158.05Q488.6 157.11 488.6 155.56Q488.6 154.38 489.11 152.89Q489.63 151.4 490.5 150.09Q491.53 148.57 493.03 147.55Q494.88 146.33 496.57 146.33Q497.79 146.33 498.48 147.11Q499.19 147.88 499.19 149.23Q499.19 150.29 498.63 151.43Q498.08 152.58 497 153.64Q496.11 154.52 495.26 155.02Q494.41 155.51 493.77 155.51Q493.48 155.51 493.18 155.37ZM505.58 152.07L505.63 152.13L506.41 151.21Q507.6 149.9 508.29 149.26Q508.99 148.61 509.54 148.32Q510.1 148.04 510.67 148.04Q511.6 148.04 511.97 148.53Q512.35 149.03 512.35 150.25Q512.35 150.76 512.25 151.75Q512.09 153.06 512.09 154.22Q512.09 155.52 512.22 156.33Q512.31 156.83 512.49 157.32Q512.63 157.79 512.63 157.96Q512.63 158.17 512.47 158.28Q512.07 158.64 511.4 158.9Q510.74 159.16 510.28 159.16Q509.54 159.16 508.93 158.65Q508.33 158.14 507.99 157.24Q507.66 156.34 507.66 155.21Q507.66 154.46 507.82 153.43L507.77 153.38Q507.21 154 506.86 154.36Q506.52 154.73 506.22 155.05Q504.76 156.72 503.74 158.06Q503.35 158.58 503.03 158.97Q502.55 159.46 501.93 159.46Q501.1 159.46 500.58 158.83Q500.06 158.21 500.06 157.22Q500.06 156.6 500.2 155.72Q500.35 154.83 500.58 153.83Q500.83 152.82 501.15 151.75Q501.49 150.68 501.88 149.72Q502.48 148.11 503.34 147.22Q503.93 146.63 504.76 146.63Q506.11 146.63 506.11 148.39Q506.11 149.68 505.58 152.07ZM516.11 146.41L516.17 146.25Q517.03 143.83 517.65 142.84Q517.95 142.37 518.48 142.01Q519.49 141.37 520.37 141.37Q520.89 141.37 521.17 141.6Q521.44 141.84 521.44 142.28Q521.44 142.58 521.05 143.51Q520.39 145.04 520.06 146.38Q520.28 146.41 520.49 146.46Q521.27 146.58 521.52 146.73Q521.77 146.88 521.77 147.27Q521.77 147.96 521.41 148.54Q521.06 149.13 520.49 149.4Q520.06 149.6 519.1 149.66Q518.93 150.17 518.72 151.06Q518.6 151.84 518.46 153.22Q518.38 153.73 518.38 154.17Q518.38 156.23 520.37 156.23L520.45 156.23L520.49 156.23Q520.72 156.23 520.72 156.3Q520.72 156.51 520.28 157.01Q519.84 157.5 519.3 157.88Q518.73 158.27 518.05 158.51Q517.38 158.74 516.83 158.74Q515.46 158.74 514.6 157.82Q513.76 156.89 513.76 155.37Q513.76 154.72 513.98 153.66Q514.21 152.61 514.7 150.84Q514.77 150.52 514.86 150.18Q514.96 149.83 514.97 149.77Q514.45 149.76 514.23 149.55Q514.01 149.34 514.01 148.87Q514.01 148.05 514.63 147.32Q515.27 146.59 516.11 146.41ZM527.31 154.95Q527.91 154.55 528.22 154.14Q528.91 153.3 529.29 152.2Q529.59 151.49 529.76 150.6Q529.93 149.72 529.93 148.95Q529.93 148.23 529.63 148.23Q529.21 148.23 528.35 150.07Q527.85 151.17 527.52 152.28Q527.21 153.38 527.21 154.17Q527.21 154.44 527.31 154.95ZM527.34 155.37Q527.48 156.15 528.35 156.15Q529.33 156.15 530.89 155Q531.8 154.34 532.12 154.34Q532.51 154.34 532.85 154.55Q533.18 154.76 533.18 154.98Q533.18 155.21 532.81 155.59Q532.12 156.28 531.22 156.94Q530.32 157.59 529.49 158.04Q528.65 158.47 527.82 158.73Q526.99 158.97 526.34 158.97Q524.71 158.97 523.73 158.05Q522.76 157.11 522.76 155.56Q522.76 154.38 523.26 152.89Q523.78 151.4 524.66 150.09Q525.68 148.57 527.18 147.55Q529.03 146.33 530.72 146.33Q531.95 146.33 532.64 147.11Q533.34 147.88 533.34 149.23Q533.34 150.29 532.78 151.43Q532.23 152.58 531.15 153.64Q530.27 154.52 529.41 155.02Q528.56 155.51 527.92 155.51Q527.64 155.51 527.34 155.37ZM476.48 184.95Q477.08 184.55 477.39 184.14Q478.08 183.3 478.46 182.2Q478.76 181.49 478.93 180.6Q479.1 179.72 479.1 178.95Q479.1 178.23 478.8 178.23Q478.38 178.23 477.52 180.07Q477.01 181.17 476.69 182.28Q476.38 183.38 476.38 184.17Q476.38 184.44 476.48 184.95ZM476.51 185.37Q476.65 186.15 477.52 186.15Q478.5 186.15 480.06 185Q480.97 184.34 481.28 184.34Q481.67 184.34 482.01 184.55Q482.35 184.76 482.35 184.98Q482.35 185.21 481.97 185.59Q481.28 186.28 480.39 186.94Q479.49 187.59 478.65 188.04Q477.82 188.47 476.99 188.73Q476.15 188.97 475.5 188.97Q473.88 188.97 472.9 188.05Q471.92 187.11 471.92 185.56Q471.92 184.38 472.43 182.89Q472.95 181.4 473.82 180.09Q474.85 178.57 476.35 177.55Q478.2 176.33 479.89 176.33Q481.11 176.33 481.8 177.11Q482.51 177.88 482.51 179.23Q482.51 180.29 481.95 181.43Q481.4 182.58 480.32 183.64Q479.43 184.52 478.58 185.02Q477.73 185.51 477.09 185.51Q476.8 185.51 476.51 185.37ZM478.54 172.82Q479.12 172.19 479.86 171.06Q480.22 170.54 480.29 170.45Q480.37 170.35 480.58 170.28Q481.14 170.08 482.07 169.86Q482.99 169.64 483.3 169.64Q483.71 169.64 483.71 169.99Q483.71 170.76 482.26 172.13Q481.15 173.19 480.07 173.75Q478.99 174.31 478 174.31Q477.44 174.31 477.44 173.91Q477.44 173.75 477.55 173.64Q477.65 173.52 477.95 173.3Q478.08 173.21 478.54 172.82ZM468.37 214.92L468.15 215.11Q468.08 215.15 467.27 215.77Q465.71 216.99 464.7 217.71Q463.68 218.41 463 218.75Q462.33 219.08 461.91 219.08Q461.21 219.08 460.78 218.51Q460.36 217.92 460.36 216.99Q460.36 215.43 460.83 213.36Q461.3 211.28 462.09 209.26Q462.96 207.02 464.23 206.53Q464.67 206.33 465.27 206.33Q466.09 206.33 466.6 206.84Q467.1 207.35 467.1 208.18Q467.1 208.75 466.91 209.39Q466.71 210.03 466.28 210.91L466.13 211.29Q465.01 213.66 465.01 214.17Q465.01 214.47 465.22 214.47Q465.41 214.47 465.72 214.2Q466.04 213.92 466.69 213.19Q467.09 212.7 467.83 211.96L468.32 211.47L468.73 211.03Q470.05 209.73 470.88 209.16Q471.71 208.57 472.26 208.57Q473.3 208.57 473.3 210.38Q473.3 210.76 473.21 211.72Q473.05 213.6 473.05 214.9Q473.07 215.16 473.07 215.38Q473.08 215.59 473.08 215.93Q473.17 216.8 473.21 217.27Q473.3 218.01 473.3 218.01Q473.3 218.4 472.6 218.7Q471.9 219 470.97 219Q470.13 219 469.51 218.67Q468.91 218.34 468.6 217.68Q468.29 217.03 468.29 216.1Q468.29 215.98 468.32 215.69Q468.34 215.39 468.37 214.92ZM488.91 213.96L488.68 214.29L485.13 217.93Q484.43 218.62 484.01 218.88Q483.59 219.13 483.08 219.13Q482.29 219.13 481.74 218.54Q481.21 217.95 481.21 217.09Q481.21 216.55 481.36 215.93Q481.53 215.29 482.01 214.04Q482.1 213.78 482.18 213.6Q482.27 213.4 482.33 213.27L482.27 213.22Q481.01 214.55 479.8 216.02Q478.78 217.23 478.18 217.83Q477.59 218.43 477.1 218.73Q476.62 219.03 476.24 219.03Q475.4 219.03 474.9 218.36Q474.41 217.7 474.41 216.55Q474.41 215.11 475.66 211.88Q476.78 209.01 477.39 208.04Q478.29 206.68 479.45 206.68Q480.15 206.68 480.61 207.02Q481.08 207.35 481.08 207.88Q481.08 208.86 480.33 210.86Q480.05 211.6 479.75 212.54L479.8 212.59Q480.28 212.06 481.35 210.76Q483.18 208.49 484.12 207.67Q485.33 206.55 486.34 206.55Q486.78 206.55 487.18 206.85Q487.59 207.15 487.82 207.66Q488.07 208.15 488.07 208.7Q488.07 209.26 487.26 211.57Q487.09 212.05 487 212.32Q486.91 212.59 486.83 212.79L486.9 212.84Q487.08 212.66 487.22 212.52Q487.36 212.37 487.53 212.22Q487.72 212.05 487.87 211.9Q488.22 211.57 489.64 210.12Q490.58 209.08 491.11 208.7Q491.65 208.31 492.14 208.31Q492.95 208.31 493.37 208.87Q493.8 209.42 493.8 210.5Q493.8 211.16 493.59 212.59Q493.41 214.21 493.33 215.13Q493.26 216.04 493.26 216.41Q493.26 216.68 493.29 217.11Q493.33 217.53 493.41 218.01Q493.48 218.49 493.61 219.08Q493.77 219.79 493.82 220.2Q493.72 220.67 493.13 220.99Q492.56 221.32 491.88 221.32Q490.82 221.32 489.88 220.35Q489.46 219.91 489.23 219.47Q489.01 219.01 488.9 218.4Q488.81 217.78 488.81 216.76Q488.81 216.1 488.97 214.01L488.91 213.96Z" /><path style="paint-order:stroke fill markers;stroke: #362345;stroke-width: 4;stroke-linejoin: round;" fill="#db3b30" fill="#db3b30" d="M461.38 239.26Q461.9 237.79 462.25 236.19Q462.6 234.57 462.6 233.71Q462.6 233.48 462.47 233.48Q462.26 233.48 461.74 234.42Q461.22 235.34 460.87 236.3Q460.11 238.43 459.7 239.83Q459.29 241.23 459.14 242.18Q458.98 243.13 458.98 244.12Q458.98 244.96 459.16 245.35Q459.36 245.74 459.77 245.74Q460.49 245.74 461.38 245.12Q462.26 244.48 462.98 243.45Q463.54 242.68 463.85 242.68Q464.25 242.68 464.25 243.32Q464.25 244.72 463.38 246.04Q462.51 247.37 461.13 248.21Q459.76 249.03 458.33 249.03Q456.57 249.03 455.46 247.92Q454.36 246.81 454.36 245.03Q454.36 243.57 454.98 241.62Q455.61 239.65 456.65 237.67Q457.7 235.68 458.95 234.07Q460.2 232.45 461.43 231.59Q462.18 231.03 463.11 231.03Q463.81 231.03 464.38 231.47Q464.96 231.9 465.27 232.68Q465.58 233.47 465.58 234.42Q465.58 236.46 464.77 238.41Q463.98 240.37 462.55 241.8Q461.87 242.49 461.24 242.88Q460.62 243.27 460.15 243.27Q459.7 243.27 459.7 242.92Q459.7 242.72 460.03 242.18Q460.49 241.46 461.1 240.02Q461.15 239.87 461.22 239.72Q461.28 239.55 461.38 239.26ZM468.5 249.13L468.47 249.13Q467.89 249.09 467.4 248.6Q466.92 248.08 466.71 247.48Q466.52 246.86 466.52 245.9Q466.52 243.75 467.31 241.06Q468.12 238.35 469.14 237.14Q469.54 236.63 470.26 236.63Q471.01 236.63 471.47 237.32Q471.93 238.01 471.93 239.13Q471.93 240.78 471.45 243.01Q470.98 245.22 470.13 247.62Q469.79 248.58 469.29 248.92Q468.95 249.13 468.5 249.13ZM470.07 236.04L470.03 236.04Q468.81 236.01 468.81 234.57Q468.81 233.86 469.16 232.92Q469.53 231.97 469.98 231.51Q470.22 231.27 470.45 231.16Q470.7 231.06 471.08 231.06Q471.73 231.06 472.03 231.38Q472.34 231.7 472.34 232.44Q472.34 233.36 472.01 234.2Q471.7 235.02 471.17 235.54Q470.63 236.04 470.07 236.04ZM479.06 246.2L478.91 246.33Q478.85 246.38 478.72 246.51Q478.59 246.63 478.47 246.73Q476.99 248.11 476.24 248.61Q475.52 249.1 474.92 249.1Q474.14 249.1 473.63 248.65Q473.13 248.18 473.13 247.45Q473.13 246.64 473.82 245.97Q474.01 245.78 474.76 245.18Q475.95 244.26 476.41 243.83Q476.92 243.32 477.35 242.82Q476.82 241.66 476.28 240.71Q475.93 240.15 475.65 239.66Q475.2 239.04 474.8 238.62Q474.41 238.21 473.99 237.93Q473.48 237.63 473.48 237.37Q473.48 237.13 473.99 236.94Q474.5 236.76 475.24 236.76Q476.97 236.76 478.22 237.65Q478.56 237.88 478.81 238.08Q479.06 238.27 479.42 238.64Q479.79 238.99 480.18 239.38Q481.22 238.02 482.23 237.29Q483.25 236.55 484.04 236.55Q484.59 236.55 485.09 236.76Q485.58 236.96 485.58 237.19Q485.58 237.68 485.15 238.36Q484.73 239.04 483.77 240.15Q482.98 241.1 482.81 241.3Q482.65 241.51 482.2 242.23L485.29 247.19Q485.55 247.62 485.55 247.93Q485.55 248.47 484.71 248.92Q483.88 249.38 482.9 249.38Q481.13 249.38 480.18 248.09Q479.72 247.46 479.06 246.2ZM495.24 235.9Q497.18 235.9 497.18 236.36Q497.18 236.88 496.31 236.92Q495.26 236.98 494.34 237.52Q493.43 238.05 492.72 238.97Q492.01 239.9 491.61 241.06Q491.22 242.22 491.22 243.51Q491.22 244.92 491.88 245.8Q492.55 246.66 493.61 246.66Q494.6 246.66 495.35 245.64Q496.09 244.63 496.09 243.27Q496.09 242.16 495.62 241.2Q495.16 240.22 494.28 239.56Q493.9 239.26 493.9 239.13Q493.9 238.95 494.43 238.57Q495.03 238.17 495.78 237.89Q496.52 237.62 497.03 237.62Q497.61 237.62 498.13 237.93Q498.67 238.23 499.07 238.8Q499.47 239.36 499.68 240.11Q499.9 240.84 499.9 241.67Q499.9 243.05 499.38 244.4Q498.86 245.74 498.02 246.58Q496.92 247.63 495.37 248.31Q493.84 248.97 492.44 248.97Q491.09 248.97 489.75 248.51Q488.42 248.04 487.64 247.27Q486.6 246.23 486.6 244.31Q486.6 242.8 487.34 241.29Q488.08 239.78 489.34 238.56Q490.62 237.32 492.14 236.62Q493.68 235.9 495.24 235.9Z" /></svg>